<svg xmlns="http://www.w3.org/2000/svg" width="640" height="360" viewBox="0 0 640 360" role="img" aria-label="图片变成像素小格子">
  <rect width="640" height="360" fill="#f3f7fb"/>
  <rect x="62" y="50" width="516" height="260" rx="18" fill="#ffffff" stroke="#c8d2dc" stroke-width="4"/>
  <g transform="translate(164 74)">
    <rect width="312" height="192" rx="8" fill="#ffffff" stroke="#176b5b" stroke-width="4"/>
    <g stroke="#ffffff" stroke-width="3">
      <rect x="12" y="12" width="48" height="48" fill="#7ec8b3"/>
      <rect x="60" y="12" width="48" height="48" fill="#4a9a88"/>
      <rect x="108" y="12" width="48" height="48" fill="#f0c35a"/>
      <rect x="156" y="12" width="48" height="48" fill="#f5d98e"/>
      <rect x="204" y="12" width="48" height="48" fill="#3c86a8"/>
      <rect x="252" y="12" width="48" height="48" fill="#2f6f91"/>
      <rect x="12" y="60" width="48" height="48" fill="#d9efe8"/>
      <rect x="60" y="60" width="48" height="48" fill="#7ec8b3"/>
      <rect x="108" y="60" width="48" height="48" fill="#4a9a88"/>
      <rect x="156" y="60" width="48" height="48" fill="#f0c35a"/>
      <rect x="204" y="60" width="48" height="48" fill="#f5d98e"/>
      <rect x="252" y="60" width="48" height="48" fill="#3c86a8"/>
      <rect x="12" y="108" width="48" height="48" fill="#4a9a88"/>
      <rect x="60" y="108" width="48" height="48" fill="#f0c35a"/>
      <rect x="108" y="108" width="48" height="48" fill="#3c86a8"/>
      <rect x="156" y="108" width="48" height="48" fill="#2f6f91"/>
      <rect x="204" y="108" width="48" height="48" fill="#7ec8b3"/>
      <rect x="252" y="108" width="48" height="48" fill="#d9efe8"/>
    </g>
  </g>
  <text x="320" y="292" text-anchor="middle" font-family="Arial, sans-serif" font-size="28" fill="#17202a">像素小格子</text>
</svg>
